<?xml version="1.0" encoding="UTF-8"?>
<svg id="Capa_1" xmlns="http://www.w3.org/2000/svg" version="1.1" xmlns:xlink="http://www.w3.org/1999/xlink" viewBox="0 0 31.9 32">
  <!-- Generator: Adobe Illustrator 29.2.1, SVG Export Plug-In . SVG Version: 2.1.0 Build 116)  -->
  <defs>
    <style>
      .st0 {
        fill: #ff5400;
      }
    </style>
  </defs>
  <path class="st0" d="M32,14.3v1.8c-2.3,1.3-4.9,1.9-7.5,2.4-5.3,1-11.1,1.1-16.4.9-.9,0-2-.2-2.9-.3v-3.7c.3-.4.8-.1,1.3-.2,5-.8,10.6-7.4,16-9.3s4.1-1.2,5.2-.7,1.3,1.5,1.5,1.8c1.1,1.6,2,3.6,2.4,5.5l.4,1.9Z"/>
  <path class="st0" d="M32,17.7c-.3,3-1.9,6.4-3.8,8.7s-1.6,1.7-1.9,1.9c-1.4.7-5.1.8-6.6.6-5.4-.4-8.8-5-14-5.7l-.6-3.2.2-.3,2.8.3c8,0,16.4.3,23.8-3.1,0,.3,0,.5,0,.8Z"/>
  <path class="st0" d="M17.8,0c.7,0,2,.4,2.7.6,2.3.7,4.7,2,6.3,3.7-6.2-.1-10.7,4.5-15.5,7.7s-3.9,2.6-6.1,2.4C5.9,8.5,9.1,3,14.3,0c1.1,0,2.4-.1,3.5,0Z"/>
  <path class="st0" d="M14.3,31.9c-3.5-.3-5.3-1.7-7-4.6s-1.7-3.4-1.3-3.5c3,.4,5.3,2.5,7.9,3.8,3.5,1.7,7,2.3,10.8,1.5,0,.4,0,.2-.3.3-1.9,1.1-4.5,2.2-6.8,2.4s-2.5,0-3.4,0Z"/>
  <path class="st0" d="M0,14.2l.6-2.7.3-.7c0,2.1,1.4,4,3.5,4.2v3.8c0,.1-.1.2-.3.2-1,0-3.2-.7-4.2-1.2v-3.6Z"/>
  <path class="st0" d="M12.3.4c-4.4,3.4-7.1,8.4-7.7,13.9-3.4-.4-3.5-4.5-2.1-6.9S8.5,1.3,12.3.4Z"/>
  <path class="st0" d="M4.4,19.7l.6,3.5c-1,0-1.9.4-2.8.9-.6-.5-2.3-5-2-5.4l4.2,1Z"/>
  <path class="st0" d="M8.2,29.9c0,0-1.6-1-1.8-1.1-1.5-1.1-2.9-2.6-3.9-4.1.8-.4,1.7-.9,2.6-.8.6,2.2,1.7,4.2,3.1,6Z"/>
</svg>